<svg class="svg-icon" style="width: 1em; height: 1em;vertical-align: middle;fill: #ffffff;overflow: hidden;" viewBox="0 0 1024 1024" version="1.1" xmlns="http://www.w3.org/2000/svg"><path d="M748.311273 421.701818c0-106.170182-88.110545-205.079273-221.975273-205.079273-166.632727 0-250.600727 121.949091-250.600727 223.650909 0 61.579636 22.807273 116.363636 71.819636 136.750545 8.005818 3.351273 15.220364 0.093091 17.547636-8.936727 1.582545-6.283636 5.445818-22.155636 7.121455-28.718545 2.373818-8.983273 1.442909-12.101818-5.026909-19.968C353.047273 502.318545 344.064 480.349091 344.064 449.163636c0-90.437818 66.280727-171.426909 172.637091-171.426909 94.161455 0 145.92 58.740364 145.92 137.169455 0 103.237818-44.730182 190.324364-111.197091 190.324364-36.724364 0-64.139636-30.952727-55.342545-68.933818 10.519273-45.335273 30.952727-94.301091 30.952727-127.022545 0-29.277091-15.406545-53.76-47.290182-53.76-37.515636 0-67.630545 39.610182-67.630545 92.672 0 33.792 11.217455 56.645818 11.217455 56.645818s-38.4 166.027636-45.102545 195.072c-6.097455 26.484364-7.028364 55.575273-6.190545 80.151273 2.56 22.062545 23.924364 40.029091 42.449455 15.825455 13.032727-21.271273 27.042909-48.128 34.304-75.031273 4.328727-15.918545 24.669091-98.397091 24.669091-98.397091 12.194909 23.738182 47.802182 44.637091 85.690182 44.637091C671.837091 667.042909 748.311273 562.129455 748.311273 421.701818z"  /><path d="M1024 512c0-282.763636-229.236364-512-512-512C229.236364 0 0 229.236364 0 512s229.236364 512 512 512C794.763636 1024 1024 794.763636 1024 512zM46.545455 512C46.545455 254.929455 254.929455 46.545455 512 46.545455c257.070545 0 465.454545 208.384 465.454545 465.454545 0 257.070545-208.384 465.454545-465.454545 465.454545C254.929455 977.454545 46.545455 769.070545 46.545455 512z"  /></svg>